PathFileType	4	(X/Y/Z)	OpenSim_Sub11_EMGPreOp_Accel.trc
DataRate	CameraRate	NumFrames	NumMarkers	Units	OrigDataRate	OrigDataStartFrame	OrigNumFrames
100	100	41	8	m	100	5150	5885
Frame#	Time	torso_imu_offset_imu	pelvis_imu_offset_imu	tibia_r_imu_offset_imu	femur_r_imu_offset_imu	tibia_l_imu_offset_imu	femur_l_imu_offset_imu	toes_r_imu_offset_imu	toes_l_imu_offset_imu
				X1	Y1	Z1	X2	Y2	Z2	X3	Y3	Z3	X4	Y4	Z4	X5	Y5	Z5	X6	Y6	Z6	X7	Y7	Z7	X8		Y8	Z8	

5150	51.49000000	8.73630149	-0.13012977	4.23314357	9.01374432	0.72931399	3.60195620	9.81976695	0.50481217	1.41136774	9.55625278	1.42695571	-2.49659981	6.11585432	-3.26785686	1.15509379	8.04303436	3.23919099	0.87295318	5.22149914	-0.42615851	8.27886059	8.54076882	-2.35672667	5.24438995
5151	51.50000000	8.78329483	-0.18672935	4.23564596	8.96280980	0.76595543	3.55417284	9.84689418	0.31931226	1.35980473	9.65741200	1.18303914	-2.44758234	6.68666772	-1.98489713	1.52771302	8.18766434	3.15829743	0.73520675	4.87601193	-0.43106314	8.44382330	8.89187572	-1.84971716	5.10715821
5152	51.51000000	8.82164357	-0.23659914	4.25940987	8.94897271	0.82435903	3.52221384	9.89450395	0.25713957	1.37698552	9.73759662	0.98278889	-2.36546632	7.61755786	-1.38016266	1.81985897	8.21582079	3.31570193	0.56835864	4.39726142	-0.58226000	8.76601869	8.61190674	-0.73477126	5.20216946
5153	51.52000000	8.86000864	-0.27577262	4.23317870	8.91977198	0.86338363	3.52757500	9.92763036	0.26949839	1.42849662	9.68297864	0.74684165	-2.28961001	8.40957330	-1.22087401	1.93307021	8.07818960	3.21076098	0.60930448	4.45500017	-0.56933738	8.61700389	8.84357428	-0.73220227	5.16209464
5154	51.53000000	8.87134224	-0.39017312	4.18046195	8.91813484	0.83536632	3.48168171	9.90078204	0.08144378	1.45348515	9.50756631	0.60092962	-2.28125472	8.72024526	-1.28767785	2.09149193	7.94095926	3.16062958	0.73692946	4.77351384	-0.43497373	8.49186806	9.37000330	-1.08071760	5.29389005
5155	51.54000000	8.90327059	-0.47647427	4.18575553	9.01343173	0.86154420	3.40691401	9.87001329	-0.14213939	1.20971655	9.44219620	0.58209286	-2.30393995	8.76020958	-1.70769676	2.14178692	7.95323009	3.14206543	0.94685189	4.63737538	-0.43100812	8.53938402	9.41316414	-0.83210897	5.44577596
5156	51.55000000	9.01267134	-0.57513026	4.18761399	9.03937913	0.86338759	3.40910956	9.94143310	-0.08862129	1.07542967	9.46401315	0.58553641	-2.39752054	8.66619007	-2.76940436	1.92857951	8.20520898	2.96773548	0.94088915	4.66108426	-0.41240664	8.66165390	9.17484487	-0.53244216	5.40291572
5157	51.56000000	9.02702528	-0.69251750	4.13128624	9.06156614	0.92528275	3.34291282	10.04022930	0.11472130	1.13910475	9.48533659	0.61949160	-2.47941378	8.42677964	-3.80591959	1.90029775	8.67318445	2.76387159	0.53917147	4.87292345	-0.35071805	8.46003710	9.42554151	-0.13389448	5.20191885
5158	51.57000000	9.03629950	-0.78925497	4.11685627	9.02091740	0.99754621	3.16473109	10.01735290	0.21144719	1.10636824	9.43055892	0.72218880	-2.51947557	8.29071401	-4.12794462	2.03287040	8.68520070	2.76269524	-0.01379524	4.69109576	-0.39150867	8.56041801	9.86483694	-0.04025949	5.02413880
5159	51.58000000	9.04087128	-0.86190094	4.08714189	9.02183542	1.04994195	3.10445879	9.94475044	0.38092244	1.07486589	9.37095157	0.78717022	-2.55663198	8.28926605	-4.21800488	1.74380474	8.30916377	2.75455276	-0.24182345	4.76604012	-0.31863651	8.66083349	10.19459903	-0.67762585	4.72947963
5160	51.59000000	9.02649473	-0.92945334	3.93541442	8.97868250	1.13206192	3.09255913	9.95252008	0.50683310	1.17380927	9.33301071	0.94359865	-2.58808084	8.37139516	-4.32747623	1.22062832	7.89314287	2.72141272	-0.15106157	4.43081966	-0.45402450	8.70850142	10.65547858	-1.15939910	4.50614113
5161	51.60000000	9.11822608	-1.02089878	3.93787831	8.91475933	1.19653185	3.00326439	9.96883116	0.36616526	1.20178272	9.31224349	1.14569194	-2.54659610	8.52554105	-4.31715294	0.63692833	7.57038807	2.49784099	0.06958697	5.10712862	-0.29461622	8.38984946	11.34397343	-1.62441250	4.35349527
5162	51.61000000	9.23404087	-1.06059345	3.90724228	8.82816038	1.17344210	2.86026908	9.91216052	0.17542966	1.14394926	9.37005812	1.32906078	-2.54044463	8.94358575	-4.47318642	-0.05438445	7.40207870	2.44874416	0.38207502	4.85097040	-0.27964260	8.48332343	11.64737032	-2.64363113	3.99087055
5163	51.62000000	9.21480966	-1.02911692	3.85999551	8.73122804	1.26147076	2.77366897	9.89450376	0.23642089	1.28656179	9.41021560	1.48051081	-2.42978786	9.52696690	-4.96580776	-0.73033326	7.42200096	2.51829849	0.68549616	4.51656872	-0.34738007	8.75267882	11.80332536	-3.14083509	3.65615336
5164	51.63000000	9.24732337	-0.96048804	3.87128373	8.66025774	1.34909704	2.74600874	9.88268099	0.42242595	1.48288403	9.47084680	1.53313444	-2.32059535	10.14896949	-5.63658383	-1.31100226	7.55348273	2.76048969	0.91687789	4.37597563	-0.40496973	8.65306998	12.23031054	-3.13095433	3.53986789
5165	51.64000000	9.24377223	-0.88235046	3.87369207	8.65093091	1.42141024	2.68525517	9.85691794	0.39288227	1.58220754	9.54390029	1.54265614	-2.26956554	10.43594274	-6.02559962	-1.65582348	7.62600230	3.13699689	1.08589256	4.89331357	-0.30948432	8.50371770	12.82544711	-3.07420396	3.31588671
5166	51.65000000	9.26861002	-0.73983669	3.87247745	8.72381294	1.45780549	2.70173680	9.77334295	0.22881049	1.54314373	9.61602051	1.61298894	-2.22725915	10.16903434	-5.65131895	-1.39836234	7.71241648	3.45713951	1.26511869	4.68263653	-0.26037358	8.54537894	13.33115853	-2.68579534	2.90437691
5167	51.66000000	9.23613245	-0.63583761	3.90948866	8.84477378	1.47143191	2.70542966	9.76855878	0.12737875	1.64286382	9.67594312	1.57157601	-2.24976015	9.63263023	-4.85435820	-0.57263243	7.91419765	3.75766659	1.36055674	4.59935079	-0.36392825	8.67933687	13.39536414	-2.00385198	2.20120928
5168	51.67000000	9.23762278	-0.54033254	3.96468458	8.94364182	1.51590626	2.66620319	9.83851309	0.10316563	1.66665679	9.69380971	1.40402950	-2.24855077	9.10215060	-4.17382487	0.44245853	8.36161002	3.94940016	1.36327453	4.82753863	-0.27760107	8.46093683	13.19452408	-1.40121192	1.34368886
5169	51.68000000	9.19998116	-0.46360898	4.03187207	9.03160381	1.46041373	2.65571825	9.86935315	0.11701402	1.49187973	9.62224590	1.24567573	-2.21045463	8.70511702	-3.34164767	0.95986124	9.03211078	4.07998391	1.12873543	4.61861657	-0.30649533	8.60831724	12.19698714	-1.07672490	0.84456642
5170	51.69000000	9.07971202	-0.43648864	4.08696414	9.06283270	1.43185401	2.73616504	9.88621001	0.16226895	1.44740191	9.52406667	1.15274207	-2.23302825	8.80949675	-3.04088528	0.79281104	9.77750991	4.10674071	0.55679773	4.74472475	-0.34712665	8.56876045	11.76645911	2.18093846	-0.53482885
5171	51.70000000	8.99428986	-0.45496474	4.22870984	9.15866728	1.42267143	3.19612838	9.89762746	0.27953841	1.41242502	9.45089325	1.00829434	-2.34185836	10.33149050	-2.49661577	1.84674825	10.54737639	4.08715547	0.03531100	4.43333983	-0.38531130	8.71359261	14.93302606	0.41165749	-1.35226660
5172	51.71000000	8.99831163	-0.50783257	4.44431748	9.36874186	1.22703132	3.79291055	9.94129990	0.38174601	1.26066434	9.48629165	0.83730161	-2.42492719	13.29773727	0.06607077	3.83054447	11.19326964	4.07191197	-0.35529203	5.18146996	-0.15625177	8.44685864	15.48257333	-16.26688894	2.91588401
5173	51.72000000	9.09012198	-0.50901780	4.71540639	9.67075917	0.84607563	4.17592991	10.11050640	0.45832737	1.07826542	9.46247287	0.80762262	-2.52330198	15.12594857	1.72786064	3.65040793	11.60087502	4.19702818	-0.35759841	4.78362367	-0.21915763	8.62123460	12.23262991	-18.94636161	9.75519605
5174	51.73000000	9.46763372	-0.36183032	4.96005971	9.95992023	0.41701284	4.33089974	10.28255456	0.62499820	0.85931513	9.26459208	0.95679049	-2.68283326	13.59695808	2.55095886	4.55406841	12.50944614	4.92285130	0.01436632	4.76223653	-0.24229721	8.76601797	7.62879616	-6.65922503	13.09254338
5175	51.74000000	9.69799960	-0.30048864	5.03450274	10.29416045	-0.05447243	4.51393298	10.39020177	0.84185697	0.75043212	8.95488899	1.27267401	-2.74257737	11.85233694	4.23441768	7.28184372	13.66673656	6.58773342	0.36797968	4.40939098	-0.50976000	8.77242826	4.12900753	3.63793531	10.64798445
5176	51.75000000	9.70247735	-0.35813576	4.99453472	10.51610193	-0.27796534	4.44081607	10.34789715	0.94235664	0.76040788	8.84841804	1.68039522	-2.94074756	10.03027222	3.46278852	5.82489404	13.20160088	7.99648595	0.15709066	4.94967538	-0.44875981	8.58731904	4.68658606	4.98530922	10.12805615
5177	51.76000000	9.60881841	-0.38703935	4.87305784	10.32239257	-0.06512598	4.33478175	10.12565681	1.01683248	0.87944649	9.04832112	2.03618928	-3.29019968	8.76871305	1.24300893	2.37722002	10.90371393	7.87095511	0.05530070	4.60744899	-0.52053495	8.66899739	7.63466661	-2.42929367	9.01731480
5178	51.77000000	9.50045139	-0.51193404	4.60345214	9.97645886	0.44860539	4.06779840	9.95502755	1.18813036	1.09029447	9.26025662	2.35563743	-3.26802374	9.65780093	-1.75705298	0.37677549	8.64788950	5.71940823	0.52810600	4.86174876	-0.47153053	8.66117197	5.30122037	-3.80711964	6.28511630
5179	51.78000000	9.41356632	-0.49495518	4.37679122	9.48867088	0.91804277	3.90859738	9.88479533	1.36643753	1.24222308	9.43080441	2.45500724	-3.17954672	11.05940039	-4.63858459	-0.95579239	7.83243792	3.23467748	0.96968891	4.78744400	-0.48754613	8.51000372	7.59939921	2.05434533	8.08628317
5180	51.79000000	9.27079540	-0.15062523	4.24786468	9.00176003	1.30236647	3.83997308	9.83263353	1.32923704	1.22641228	9.42261578	2.47539924	-3.04902489	10.50413429	-6.21205106	-1.51532503	8.17800218	1.65715937	0.63282611	5.05576580	-0.46535550	8.48656846	6.33814575	1.65161552	7.72043658
5181	51.80000000	9.20541038	0.23960144	4.08873206	8.65975548	1.55265556	3.96575700	9.80368228	1.16858343	1.14058612	9.38237980	2.42974481	-2.86345919	8.71867282	-6.21850155	-1.61745019	8.66055653	1.08657582	-0.23060400	4.67418835	-0.53735773	8.58969915	6.68897908	1.16856124	7.50573504
5182	51.81000000	9.21982872	0.43227520	3.88549412	8.47475590	1.66453503	4.15918983	9.82665318	0.88413871	1.10818122	9.35109280	2.28394000	-2.84204310	8.34590901	-4.73601595	-1.24104536	8.99866659	0.79013119	-1.52019440	4.86468154	-0.64642054	8.58445774	5.94104482	1.92579984	8.32128625
5183	51.82000000	9.34037404	0.64801476	3.74908199	8.43433046	1.53209373	4.32727877	9.87664845	0.50776546	1.06337915	9.27682572	2.03909804	-2.93896124	9.20102245	-2.44387454	-0.20723842	9.51781891	0.64267343	-2.92343197	4.87298592	-0.73396658	8.34543997	6.33041543	0.92485879	7.88532935
5184	51.83000000	9.45794462	0.81582186	3.67374658	8.59165692	1.31343375	4.44271067	9.84154838	0.21695919	1.10879287	9.18345926	1.77064406	-3.03098941	10.11204267	-0.62634303	0.70432180	10.00981477	0.56209892	-3.10222901	5.09680713	-0.81329682	8.41531977	6.11726580	0.27967750	7.87741289
5185	51.84000000	9.42201463	0.82868928	3.57791208	8.76540852	1.02971924	4.53458618	9.71500613	0.16028334	1.50859139	9.11246051	1.58648807	-3.07745475	10.89263037	0.45581640	1.17564550	10.17992778	-0.01947502	-2.18433039	4.70024762	-1.08633825	8.50608009	6.28144269	-0.05242999	7.81955670
5186	51.85000000	9.31889505	0.86321729	3.55819164	8.91491034	0.81359029	4.70664306	9.61829456	0.40443541	2.13181403	9.14673202	1.40434875	-2.95022583	11.10493515	1.16264792	1.55669023	10.01629378	-0.30424786	-1.15232177	4.03794390	-1.40502806	8.83809560	6.23918614	-0.29808681	7.75488991
5187	51.86000000	9.15035891	0.86217175	3.66837279	9.08990966	0.79062134	4.81264607	9.61736017	0.66597447	2.35279019	9.49897213	1.32220727	-2.78708181	10.70830671	1.86195818	1.99620218	9.99902204	0.10491243	-0.55320892	3.92727474	-1.26288426	8.84396744	6.23255606	-0.40612642	7.98837887
5188	51.87000000	9.08267876	0.83401577	3.67491742	9.21577745	0.83674133	4.90606051	9.84578441	0.80770914	2.26986841	10.02989508	1.39759825	-2.60071194	10.14274142	2.23849703	1.87039431	10.05741936	0.72316352	-0.44581252	4.42967442	-0.62417053	8.93147996	5.89695991	-0.22144387	8.14965878
5189	51.88000000	9.10489983	0.84865582	3.66961211	9.25725001	0.89084453	4.89142410	10.26989533	0.81261311	2.47254272	10.48071856	1.45683731	-2.37351505	9.79730105	1.97663552	1.40394046	10.07966688	1.25154944	-0.68360238	4.66597830	0.48215990	9.39567441	5.80762996	-0.10189985	8.20609214
5190	51.89000000	9.07846429	0.84341538	3.71512296	9.25432030	0.91126366	4.85957960	10.61772486	0.73328835	3.05910681	10.84658435	1.42849087	-2.05780450	9.75284569	1.14748458	1.12077760	10.26220742	1.56920663	-1.15604310	4.40864014	0.70319072	9.59012218	6.39696834	-0.04434770	7.70109076
